HIERARCHY
ROOT Hips
{
	OFFSET 0.00000 0.00000 0.00000
	CHANNELS 6 Xposition Yposition Zposition Zrotation Yrotation Xrotation 
	JOINT LHipJoint
	{
		OFFSET 0 0 0
		CHANNELS 3 Zrotation Yrotation Xrotation
		JOINT LeftHip
		{
			OFFSET 1.46561 -1.72757 0.83774
			CHANNELS 3 Zrotation Yrotation Xrotation
			JOINT LeftKnee
			{
				OFFSET 2.48915 -6.83890 0.00000
				CHANNELS 3 Zrotation Yrotation Xrotation
				JOINT LeftAnkle
				{
					OFFSET 2.60555 -7.15868 0.00000
					CHANNELS 3 Zrotation Yrotation Xrotation
					JOINT LeftToe
					{
						OFFSET 0.19248 -0.52884 2.26738
						CHANNELS 3 Zrotation Yrotation Xrotation
						End Site
						{
							OFFSET 0.00000 -0.00000 1.17015
						}
					}
				}
			}
		}
	}
	JOINT RHipJoint
	{
		OFFSET 0 0 0
		CHANNELS 3 Zrotation Yrotation Xrotation
		JOINT RightHip
		{
			OFFSET -1.46918 -1.72757 0.83774
			CHANNELS 3 Zrotation Yrotation Xrotation
			JOINT RightKnee
			{
				OFFSET -2.49034 -6.84216 0.00000
				CHANNELS 3 Zrotation Yrotation Xrotation
				JOINT RightAnkle
				{
					OFFSET -2.65971 -7.30750 0.00000
					CHANNELS 3 Zrotation Yrotation Xrotation
					JOINT RightToe
					{
						OFFSET -0.19227 -0.52827 2.30785
						CHANNELS 3 Zrotation Yrotation Xrotation
						End Site
						{
							OFFSET -0.00000 -0.00000 1.18972
						}
					}
				}
			}
		}
	}
	JOINT lowerback
	{
		OFFSET 0 0 0
		CHANNELS 3 Zrotation Yrotation Xrotation
		JOINT Chest
		{
			OFFSET 0.02432 2.19909 -0.28000
			CHANNELS 3 Zrotation Yrotation Xrotation
			JOINT Chest2
			{
				OFFSET 0.03714 2.21816 -0.15261
				CHANNELS 3 Zrotation Yrotation Xrotation
				JOINT lowerneck
				{
					OFFSET 0 0 0
					CHANNELS 3 Zrotation Yrotation Xrotation
					JOINT Neck
					{
						OFFSET -0.01896 1.56165 0.21681
						CHANNELS 3 Zrotation Yrotation Xrotation
						JOINT Head
						{
							OFFSET 0.02744 1.56009 0.06764
							CHANNELS 3 Zrotation Yrotation Xrotation
							End Site
							{
								OFFSET 0.01212 1.60574 0.00298
							}
						}
					}
				}
				JOINT LeftCollar
				{
					OFFSET 0 0 0
					CHANNELS 3 Zrotation Yrotation Xrotation
					JOINT LeftShoulder
					{
						OFFSET 3.05595 1.48048 -0.60794
CHANNELS 3 Zrotation Xrotation Yrotation
						JOINT LeftElbow
						{
OFFSET 0 -5.206070 -0.000000
CHANNELS 3 Zrotation Xrotation Yrotation
							JOINT LeftWrist
							{
OFFSET 0 -3.399610 0.000000
CHANNELS 3 Zrotation Xrotation Yrotation
								JOINT lhand
								{
									OFFSET 0 0 0
CHANNELS 3 Zrotation Xrotation Yrotation
									JOINT LFingers
									{
OFFSET 0 -0.519690 0.000000
CHANNELS 3 Zrotation Xrotation Yrotation
										End Site
										{
OFFSET 0 -0.418990 0.000000
										}
									}
								}
								JOINT LThumb
								{
OFFSET 0 0.000000 0.000000
CHANNELS 3 Zrotation Xrotation Yrotation
									End Site
									{
OFFSET 0 -0.425390 0.425390
									}
								}
							}
						}
					}
				}
				JOINT RightCollar
				{
					OFFSET 0 0 0
					CHANNELS 3 Zrotation Yrotation Xrotation
					JOINT RightShoulder
					{
						OFFSET -2.99052 1.57608 -0.69102
CHANNELS 3 Zrotation Xrotation Yrotation
						JOINT RightElbow
						{
OFFSET 0 -5.322140 0.000000
CHANNELS 3 Zrotation Xrotation Yrotation
							JOINT RightWrist
							{
OFFSET 0 -3.512080 0.000000
CHANNELS 3 Zrotation Xrotation Yrotation
								JOINT rhand
								{
									OFFSET 0 0 0
CHANNELS 3 Zrotation Xrotation Yrotation
									JOINT RFingers
									{
OFFSET 0 -0.586680 0.000000
CHANNELS 3 Zrotation Xrotation Yrotation
										End Site
										{
OFFSET 0 -0.473000 0.000000
										}
									}
								}
								JOINT RThumb
								{
OFFSET 0 0.000000 0.000000
CHANNELS 3 Zrotation Xrotation Yrotation
									End Site
									{
OFFSET 0 -0.480220 0.480220
									}
								}
							}
						}
					}
				}
			}
		}
	}
}
MOTION
Frames: 4
Frame Time: 0.008333333333333333
-0.211878 14.659724 -14.541036 -1.852626 1.679320 30.835957 0.000000 0.000000 0.000000 -3.234997 -13.930946 -70.979623 15.110103 19.416524 75.567957 1.902299 11.728259 -32.492638 0.673064 -5.245742 -14.610955 0.000000 0.000000 0.000000 8.141024 17.906256 -71.130578 -15.377539 -19.479606 76.371094 -3.244472 -5.103351 -36.086208 -0.034765 1.200117 -3.299496 -2.112867 0.944844 24.135012 2.957957 1.026620 2.050843 4.203261 0.668517 -11.326935 -2.499551 -0.588240 -23.840513 -0.286807 -0.029411 2.982139 0.299306 -0.076246 4.602870 0.000000 0.000000 0.000000 6.717724 -19.332271 -4.456830 3.178216 -5.485193 0.152250 28.681968 8.596717 5.069971 0.000000 0.000000 0.000000 -7.125000 0.000000 0.000000 1.493163 24.205313 0.749967 0.000000 0.000000 0.000000 -7.521698 -15.888131 -6.413114 -10.377879 -17.328485 -1.585648 -25.023031 51.761703 24.116143 0.000000 0.000000 0.000000 7.125000 0.000000 0.000000 4.735800 56.208022 -1.303882
-0.213548 14.776722 -14.382827 -1.771435 1.715148 30.248617 0.000000 0.000000 0.000000 -3.938259 -13.711725 -68.773988 14.616960 19.289709 74.079533 1.877397 11.816396 -32.409758 0.763124 -5.577842 -15.564498 0.000000 0.000000 0.000000 8.862893 17.396586 -68.940340 -14.898420 -19.363410 74.929860 -3.233185 -5.135587 -36.042170 -0.066568 1.659348 -4.565240 -2.167259 0.921727 23.683641 2.950472 0.987759 1.930929 4.236153 0.653376 -11.215920 -2.547787 -0.585642 -23.882589 -0.275035 -0.003440 3.769349 0.313210 -0.071445 4.860487 0.000000 0.000000 0.000000 6.774871 -21.374059 -4.147013 3.222193 -5.560445 0.156584 29.174421 8.625917 5.229874 0.000000 0.000000 0.000000 -7.125000 0.000000 0.000000 1.850666 23.995417 0.939028 0.000000 0.000000 0.000000 -7.774280 -17.644514 -5.744935 -10.510414 -17.533972 -1.625338 -25.314109 52.073536 24.097498 0.000000 0.000000 0.000000 7.125000 0.000000 0.000000 4.415602 56.250657 -1.220017
-0.215340 14.904273 -14.215419 -1.670563 1.761797 29.562500 0.000000 0.000000 0.000000 -4.733347 -13.419401 -66.344117 14.068915 19.133295 72.413704 1.855933 11.838036 -32.297466 0.847614 -5.870967 -16.410849 0.000000 0.000000 0.000000 9.623931 16.811212 -66.519124 -14.367226 -19.220289 73.321858 -3.221450 -5.142260 -35.984173 -0.101285 2.048093 -5.638784 -2.216460 0.893515 23.233389 2.926211 0.942104 1.817041 4.248982 0.633795 -11.096292 -2.597807 -0.589699 -23.871507 -0.239435 0.010771 4.639258 0.334038 -0.071583 5.138071 0.000000 0.000000 0.000000 6.790781 -23.228405 -3.876535 3.357706 -5.792497 0.170039 29.677232 8.551430 5.619295 0.000000 0.000000 0.000000 -7.125000 0.000000 0.000000 2.200389 23.519310 1.141080 0.000000 0.000000 0.000000 -7.965803 -19.269331 -4.935881 -10.656437 -17.759639 -1.669624 -25.444915 52.255455 24.091681 0.000000 0.000000 0.000000 7.125000 0.000000 0.000000 4.272497 56.272523 -1.182673
-0.217216 15.042421 -14.038753 -1.559227 1.820938 28.785352 0.000000 0.000000 0.000000 -5.596507 -13.044384 -63.702140 13.465987 18.941757 70.564747 1.828578 11.809960 -32.112350 0.932093 -6.148742 -17.216927 0.000000 0.000000 0.000000 10.423035 16.152741 -63.872886 -13.780388 -19.044010 71.530981 -3.207240 -5.114424 -35.898412 -0.131668 2.336451 -6.436535 -2.252119 0.859183 22.771934 2.890351 0.890776 1.712339 4.242030 0.610014 -10.958037 -2.646510 -0.599695 -23.811018 -0.197478 0.014881 5.594451 0.355841 -0.077117 5.437175 0.000000 0.000000 0.000000 6.760920 -24.889257 -3.642727 3.583995 -6.179417 0.193754 30.132913 8.241106 6.201822 0.000000 0.000000 0.000000 -7.125000 0.000000 0.000000 2.498204 22.819633 1.335923 0.000000 0.000000 0.000000 -8.085327 -20.736050 -3.916248 -10.849741 -18.057368 -1.729156 -25.451364 52.011831 24.086114 0.000000 0.000000 0.000000 7.125000 0.000000 0.000000 4.263524 56.268123 -1.179713
